<?xml version="1.0" encoding="UTF-8" standalone="no"?>
<!DOCTYPE svg PUBLIC "-//W3C//DTD SVG 1.1//EN"
 "http://www.w3.org/Graphics/SVG/1.1/DTD/svg11.dtd">
<!-- Generated by graphviz version 2.40.1 (20161225.0304)
 -->
<!-- Title: G Pages: 1 -->
<svg width="632pt" height="985pt"
 viewBox="0.00 0.00 632.00 985.42" xmlns="http://www.w3.org/2000/svg" xmlns:xlink="http://www.w3.org/1999/xlink">
<g id="graph0" class="graph" transform="scale(1 1) rotate(0) translate(4 981.4213)">
<title>G</title>
<polygon fill="#ffffff" stroke="transparent" points="-4,4 -4,-981.4213 628,-981.4213 628,4 -4,4"/>
<g id="clust1" class="cluster">
<title>cluster_ancestors</title>
<polygon fill="none" stroke="#000000" points="8,-8 8,-969.4213 616,-969.4213 616,-8 8,-8"/>
</g>
<!-- 1184 -->
<g id="node1" class="node">
<title>1184</title>
<ellipse fill="none" stroke="#ffa500" cx="346" cy="-226.5018" rx="62.3499" ry="62.3499"/>
<text text-anchor="middle" x="346" y="-222.3018" font-family="Times,serif" font-size="14.00" fill="#000000">M.Moralis(25)</text>
</g>
<!-- 1458 -->
<g id="node14" class="node">
<title>1458</title>
<polygon fill="none" stroke="#0000ff" points="330.9278,-115.9662 243.0722,-115.9662 243.0722,-28.1107 330.9278,-28.1107 330.9278,-115.9662"/>
<text text-anchor="middle" x="287" y="-67.8384" font-family="Times,serif" font-size="14.00" fill="#000000">Z.Moralis(6)</text>
</g>
<!-- 1184&#45;&gt;1458 -->
<g id="edge15" class="edge">
<title>1184&#45;&gt;1458</title>
<path fill="none" stroke="#0000ff" d="M323.6946,-168.1058C318.3903,-154.2191 312.7556,-139.4671 307.5347,-125.7988"/>
<polygon fill="#0000ff" stroke="#0000ff" points="310.6549,-124.1585 303.817,-116.0657 304.1157,-126.6563 310.6549,-124.1585"/>
</g>
<!-- 1518 -->
<g id="node15" class="node">
<title>1518</title>
<ellipse fill="none" stroke="#0000ff" cx="405" cy="-72.0384" rx="56.0769" ry="56.0769"/>
<text text-anchor="middle" x="405" y="-67.8384" font-family="Times,serif" font-size="14.00" fill="#000000">C.Moralis(1)</text>
</g>
<!-- 1184&#45;&gt;1518 -->
<g id="edge16" class="edge">
<title>1184&#45;&gt;1518</title>
<path fill="none" stroke="#0000ff" d="M368.3054,-168.1058C372.5884,-156.8928 377.0868,-145.1157 381.4089,-133.8005"/>
<polygon fill="#0000ff" stroke="#0000ff" points="384.6906,-135.0176 384.9893,-124.4269 378.1514,-132.5198 384.6906,-135.0176"/>
</g>
<!-- 723 -->
<g id="node2" class="node">
<title>723</title>
<ellipse fill="none" stroke="#0000ff" cx="415" cy="-395.6898" rx="70.5271" ry="70.5271"/>
<text text-anchor="middle" x="415" y="-391.4898" font-family="Times,serif" font-size="14.00" fill="#000000">D.Vanstraten(60)</text>
</g>
<!-- 723&#45;&gt;1184 -->
<g id="edge1" class="edge">
<title>723&#45;&gt;1184</title>
<path fill="none" stroke="#0000ff" d="M388.1252,-329.7929C383.3181,-318.0057 378.303,-305.7088 373.4792,-293.8807"/>
<polygon fill="#0000ff" stroke="#0000ff" points="376.6764,-292.4519 369.6592,-284.514 370.1947,-295.0953 376.6764,-292.4519"/>
</g>
<!-- 399 -->
<g id="node3" class="node">
<title>399</title>
<ellipse fill="none" stroke="#c0c0c0" cx="461" cy="-572.7282" rx="50.7734" ry="50.7734"/>
<text text-anchor="middle" x="461" y="-568.5282" font-family="Times,serif" font-size="14.00" fill="#000000">R.Gold(38)</text>
</g>
<!-- 399&#45;&gt;723 -->
<g id="edge2" class="edge">
<title>399&#45;&gt;723</title>
<path fill="none" stroke="#0000ff" d="M448.1864,-523.4131C444.2086,-508.1038 439.7213,-490.8338 435.3621,-474.0568"/>
<polygon fill="#0000ff" stroke="#0000ff" points="438.7175,-473.0527 432.8151,-464.2543 431.9425,-474.8131 438.7175,-473.0527"/>
</g>
<!-- 125 -->
<g id="node4" class="node">
<title>125</title>
<ellipse fill="none" stroke="#c0c0c0" cx="429" cy="-746.1782" rx="67.3501" ry="67.3501"/>
<text text-anchor="middle" x="429" y="-741.9782" font-family="Times,serif" font-size="14.00" fill="#000000">Y.Sucharski(15)</text>
</g>
<!-- 125&#45;&gt;399 -->
<g id="edge3" class="edge">
<title>125&#45;&gt;399</title>
<path fill="none" stroke="#0000ff" d="M441.1891,-680.1094C444.0724,-664.4812 447.1309,-647.9028 449.9599,-632.5688"/>
<polygon fill="#0000ff" stroke="#0000ff" points="453.4092,-633.1635 451.7817,-622.6944 446.5254,-631.8934 453.4092,-633.1635"/>
</g>
<!-- 514 -->
<g id="node8" class="node">
<title>514</title>
<ellipse fill="none" stroke="#c0c0c0" cx="302" cy="-572.7282" rx="70.0511" ry="70.0511"/>
<text text-anchor="middle" x="302" y="-568.5282" font-family="Times,serif" font-size="14.00" fill="#000000">R.Vanstraten(22)</text>
</g>
<!-- 125&#45;&gt;514 -->
<g id="edge8" class="edge">
<title>125&#45;&gt;514</title>
<path fill="none" stroke="#0000ff" d="M389.1649,-691.7734C376.6114,-674.6286 362.618,-655.5171 349.5815,-637.7125"/>
<polygon fill="#0000ff" stroke="#0000ff" points="352.3993,-635.6365 343.6677,-629.6357 346.7514,-639.7719 352.3993,-635.6365"/>
</g>
<!-- 82 -->
<g id="node5" class="node">
<title>82</title>
<polygon fill="none" stroke="#c0c0c0" points="607.9042,-793.0824 514.0958,-793.0824 514.0958,-699.274 607.9042,-699.274 607.9042,-793.0824"/>
<text text-anchor="middle" x="561" y="-741.9782" font-family="Times,serif" font-size="14.00" fill="#000000">T.Tidwell(32)</text>
</g>
<!-- 82&#45;&gt;399 -->
<g id="edge4" class="edge">
<title>82&#45;&gt;399</title>
<path fill="none" stroke="#ff0000" d="M533.9386,-699.2401C520.8083,-676.4657 504.9835,-649.0176 491.4345,-625.5168"/>
<polygon fill="#ff0000" stroke="#ff0000" points="494.3904,-623.6363 486.3635,-616.7212 488.3261,-627.1327 494.3904,-623.6363"/>
</g>
<!-- 62 -->
<g id="node6" class="node">
<title>62</title>
<polygon fill="none" stroke="#c0c0c0" points="344.0381,-788.2163 259.9619,-788.2163 259.9619,-704.1401 344.0381,-704.1401 344.0381,-788.2163"/>
<text text-anchor="middle" x="302" y="-741.9782" font-family="Times,serif" font-size="14.00" fill="#000000">C.Seger(78)</text>
</g>
<!-- 62&#45;&gt;723 -->
<g id="edge5" class="edge">
<title>62&#45;&gt;723</title>
<path fill="none" stroke="#ff0000" d="M334.0276,-703.8369C340.3011,-695.5873 346.8438,-687.0146 353,-679.0034 365.3509,-662.931 373.1284,-661.6823 381,-643.0034 382.6518,-639.0837 395.0695,-546.9221 404.4243,-476.2465"/>
<polygon fill="#ff0000" stroke="#ff0000" points="407.9397,-476.3604 405.7807,-465.9879 401.0001,-475.4428 407.9397,-476.3604"/>
</g>
<!-- 62&#45;&gt;514 -->
<g id="edge9" class="edge">
<title>62&#45;&gt;514</title>
<path fill="none" stroke="#ff0000" d="M302,-703.7476C302,-688.489 302,-670.7299 302,-653.3036"/>
<polygon fill="#ff0000" stroke="#ff0000" points="305.5001,-653.103 302,-643.1031 298.5001,-653.1031 305.5001,-653.103"/>
</g>
<!-- 717 -->
<g id="node7" class="node">
<title>717</title>
<polygon fill="none" stroke="#0000ff" points="326.4876,-444.1774 229.5124,-444.1774 229.5124,-347.2023 326.4876,-347.2023 326.4876,-444.1774"/>
<text text-anchor="middle" x="278" y="-391.4898" font-family="Times,serif" font-size="14.00" fill="#000000">X.Moralis(61)</text>
</g>
<!-- 717&#45;&gt;1184 -->
<g id="edge6" class="edge">
<title>717&#45;&gt;1184</title>
<path fill="none" stroke="#ff0000" d="M297.4861,-347.2073C304.1088,-330.7296 311.636,-312.0014 318.7521,-294.2963"/>
<polygon fill="#ff0000" stroke="#ff0000" points="322.173,-295.17 322.6548,-284.5861 315.6779,-292.5595 322.173,-295.17"/>
</g>
<!-- 514&#45;&gt;717 -->
<g id="edge7" class="edge">
<title>514&#45;&gt;717</title>
<path fill="none" stroke="#0000ff" d="M292.549,-503.0121C290.3539,-486.8196 288.0395,-469.7471 285.9182,-454.0995"/>
<polygon fill="#0000ff" stroke="#0000ff" points="289.3671,-453.4854 284.5554,-444.0462 282.4305,-454.4258 289.3671,-453.4854"/>
</g>
<!-- 533 -->
<g id="node9" class="node">
<title>533</title>
<polygon fill="none" stroke="#c0c0c0" points="213.7143,-620.4425 118.2857,-620.4425 118.2857,-525.0139 213.7143,-525.0139 213.7143,-620.4425"/>
<text text-anchor="middle" x="166" y="-568.5282" font-family="Times,serif" font-size="14.00" fill="#000000">R.Moralis(54)</text>
</g>
<!-- 533&#45;&gt;717 -->
<g id="edge10" class="edge">
<title>533&#45;&gt;717</title>
<path fill="none" stroke="#ff0000" d="M196.3088,-524.8191C210.3828,-502.5723 227.2209,-475.9563 241.9435,-452.6843"/>
<polygon fill="#ff0000" stroke="#ff0000" points="245.0839,-454.2669 247.4724,-443.9448 239.1683,-450.5245 245.0839,-454.2669"/>
</g>
<!-- 214 -->
<g id="node10" class="node">
<title>214</title>
<ellipse fill="none" stroke="#c0c0c0" cx="186" cy="-746.1782" rx="56.051" ry="56.051"/>
<text text-anchor="middle" x="186" y="-741.9782" font-family="Times,serif" font-size="14.00" fill="#000000">Z.Bavier(35)</text>
</g>
<!-- 214&#45;&gt;533 -->
<g id="edge11" class="edge">
<title>214&#45;&gt;533</title>
<path fill="none" stroke="#0000ff" d="M179.5618,-690.3428C177.3645,-671.287 174.9034,-649.9426 172.687,-630.7211"/>
<polygon fill="#0000ff" stroke="#0000ff" points="176.1412,-630.1219 171.5187,-620.5887 169.1873,-630.9238 176.1412,-630.1219"/>
</g>
<!-- 19 -->
<g id="node11" class="node">
<title>19</title>
<ellipse fill="none" stroke="#c0c0c0" cx="245" cy="-905.3871" rx="56.0683" ry="56.0683"/>
<text text-anchor="middle" x="245" y="-901.1871" font-family="Times,serif" font-size="14.00" fill="#000000">C.Hillier(52)</text>
</g>
<!-- 19&#45;&gt;214 -->
<g id="edge12" class="edge">
<title>19&#45;&gt;214</title>
<path fill="none" stroke="#0000ff" d="M225.5177,-852.8149C220.2587,-838.6238 214.5177,-823.132 209.0822,-808.4646"/>
<polygon fill="#0000ff" stroke="#0000ff" points="212.3194,-807.1276 205.5626,-798.967 205.7557,-809.5601 212.3194,-807.1276"/>
</g>
<!-- 99 -->
<g id="node12" class="node">
<title>99</title>
<polygon fill="none" stroke="#c0c0c0" points="171.1871,-949.5742 82.8129,-949.5742 82.8129,-861.2001 171.1871,-861.2001 171.1871,-949.5742"/>
<text text-anchor="middle" x="127" y="-901.1871" font-family="Times,serif" font-size="14.00" fill="#000000">U.Kozee(28)</text>
</g>
<!-- 99&#45;&gt;214 -->
<g id="edge13" class="edge">
<title>99&#45;&gt;214</title>
<path fill="none" stroke="#ff0000" d="M143.4348,-861.0386C149.4763,-844.7357 156.4341,-825.9606 162.9503,-808.3768"/>
<polygon fill="#ff0000" stroke="#ff0000" points="166.3233,-809.3469 166.5164,-798.7539 159.7596,-806.9145 166.3233,-809.3469"/>
</g>
<!-- 43 -->
<g id="node13" class="node">
<title>43</title>
<polygon fill="none" stroke="#c0c0c0" points="112.2337,-794.4119 15.7663,-794.4119 15.7663,-697.9445 112.2337,-697.9445 112.2337,-794.4119"/>
<text text-anchor="middle" x="64" y="-741.9782" font-family="Times,serif" font-size="14.00" fill="#000000">C.Steffani(15)</text>
</g>
<!-- 43&#45;&gt;533 -->
<g id="edge14" class="edge">
<title>43&#45;&gt;533</title>
<path fill="none" stroke="#ff0000" d="M92.4127,-697.8627C104.9542,-676.536 119.7793,-651.326 132.8247,-629.1425"/>
<polygon fill="#ff0000" stroke="#ff0000" points="135.8639,-630.8788 137.9161,-620.4846 129.83,-627.3304 135.8639,-630.8788"/>
</g>
</g>
</svg>
