<?xml version="1.0" encoding="UTF-8" standalone="no"?><!DOCTYPE svg PUBLIC "-//W3C//DTD SVG 1.1//EN" "http://www.w3.org/Graphics/SVG/1.1/DTD/svg11.dtd"><svg width="100%" height="100%" viewBox="0 0 587 566" version="1.1" xmlns="http://www.w3.org/2000/svg" xmlns:xlink="http://www.w3.org/1999/xlink" xml:space="preserve" style="fill-rule:evenodd;clip-rule:evenodd;"><g id="graph0"><rect x="-2493" y="-615" width="5164" height="4878" style="fill:#fff;fill-rule:nonzero;"/><rect id="clust1" x="-2488.76" y="-610.641" width="5156" height="4870" style="fill:none;stroke:#000;stroke-width:1px;"/><g id="clust20"><rect x="17.182" y="16.888" width="539" height="524" style="fill:#c0c0c0;fill-rule:nonzero;stroke:#c0c0c0;stroke-width:1px;"/><text x="276.182px" y="32.088px" style="font-family:'Times-Roman', 'Times';font-size:14px;">658</text></g><g id="node49"><circle cx="119.344" cy="457.587" r="64.228" style="fill:#fff;stroke:#00f;stroke-width:1px;"/><text x="76.397px" y="461.787px" style="font-family:'Times-Roman', 'Times';font-size:14px;">Z.Nazarian(36)</text></g><g id="edge40"><path d="M-46.703,1261.58c30.766,-148.97 116.075,-562.029 150.923,-730.76" style="fill:none;stroke:#00f;stroke-width:1px;"/><path d="M100.841,529.872l5.45,-9.085l1.405,10.501l-6.855,-1.416Z" style="fill:#00f;fill-rule:nonzero;stroke:#00f;stroke-width:1px;"/></g><g id="node48"><rect x="386.14" y="207.991" width="99.181" height="99.181" style="fill:#fff;fill-rule:nonzero;stroke:#00f;stroke-width:1px;"/><path d="M398.14,207.991l-12,12" style="fill:none;stroke:#00f;stroke-width:1px;"/><path d="M386.14,295.173l12,12" style="fill:none;stroke:#00f;stroke-width:1px;"/><path d="M473.321,307.173l12,-12" style="fill:none;stroke:#00f;stroke-width:1px;"/><path d="M485.321,219.991l-12,-12" style="fill:none;stroke:#00f;stroke-width:1px;"/><text x="393.935px" y="261.782px" style="font-family:'Times-Roman', 'Times';font-size:14px;">O.Brierton(53)</text></g><g id="edge34"><path d="M385.947,289.053c-54.984,34.758 -143.635,90.799 -203.461,128.618" style="fill:none;stroke:#f00;stroke-width:1px;"/><path d="M184.198,420.729l-10.322,2.385l6.582,-8.302l3.74,5.917Z" style="fill:#f00;fill-rule:nonzero;stroke:#f00;stroke-width:1px;"/></g><g id="edge57"><path d="M453.312,207.99c24.734,-69.768 69.723,-196.669 96.093,-271.05" style="fill:none;stroke:#a020f0;stroke-width:1px;"/></g><g id="edge102"><path d="M485.527,285.211c134.696,74.736 505.789,280.635 650.387,360.864" style="fill:none;stroke:#a020f0;stroke-width:1px;"/></g><g id="edge116"><path d="M457.757,307.461c37.952,85.943 115.488,261.525 156.009,353.284" style="fill:none;stroke:#a020f0;stroke-width:1px;"/></g><g id="node50"><rect x="397.944" y="46.833" width="99.154" height="99.154" style="fill:#fff;fill-rule:nonzero;stroke:#00f;stroke-width:1px;"/><text x="405.726px" y="100.61px" style="font-family:'Times-Roman', 'Times';font-size:14px;">Q.Brierton(11)</text></g><g id="edge35"><path d="M162.923,409.625c60.141,-66.188 168.418,-185.352 232.677,-256.072" style="fill:none;stroke:#00f;stroke-width:1px;"/><path d="M393.129,151.067l9.315,-5.047l-4.134,9.755l-5.181,-4.708Z" style="fill:#00f;fill-rule:nonzero;stroke:#00f;stroke-width:1px;"/></g><g id="node51"><circle cx="84.14" cy="158.585" r="58.474" style="fill:#fff;stroke:#00f;stroke-width:1px;"/><text x="45.845px" y="162.785px" style="font-family:'Times-Roman', 'Times';font-size:14px;">K.Brierton(9)</text></g><g id="edge36"><path d="M111.792,393.443c-5.765,-48.963 -13.693,-116.296 -19.582,-166.316" style="fill:none;stroke:#00f;stroke-width:1px;"/><path d="M88.717,227.387l2.306,-10.34l4.646,9.522l-6.952,0.818Z" style="fill:#00f;fill-rule:nonzero;stroke:#00f;stroke-width:1px;"/></g><g id="node52"><rect x="150.843" y="179.791" width="92.182" height="92.182" style="fill:#fff;fill-rule:nonzero;stroke:#00f;stroke-width:1px;"/><text x="158.638px" y="230.082px" style="font-family:'Times-Roman', 'Times';font-size:14px;">N.Brierton(7)</text></g><g id="edge37"><path d="M139.831,396.406c11.901,-35.541 26.785,-79.989 38.373,-114.594" style="fill:none;stroke:#00f;stroke-width:1px;"/><path d="M174.886,280.699l6.494,-8.371l0.144,10.594l-6.638,-2.223Z" style="fill:#00f;fill-rule:nonzero;stroke:#00f;stroke-width:1px;"/></g><g id="node53"><circle cx="320.242" cy="453.474" r="57.998" style="fill:#fff;stroke:#00f;stroke-width:1px;"/><text x="282.333px" y="457.674px" style="font-family:'Times-Roman', 'Times';font-size:14px;">B.Brierton(3)</text></g><g id="edge38"><path d="M183.738,456.268c21.698,-0.444 45.984,-0.941 67.989,-1.392" style="fill:none;stroke:#00f;stroke-width:1px;"/><path d="M251.92,451.372l10.07,3.294l-9.926,3.704l-0.144,-6.998Z" style="fill:#00f;fill-rule:nonzero;stroke:#00f;stroke-width:1px;"/></g><g id="node54"><circle cx="489.791" cy="474.835" r="57.998" style="fill:#fff;stroke:#00f;stroke-width:1px;"/><text x="451.882px" y="479.035px" style="font-family:'Times-Roman', 'Times';font-size:14px;">R.Brierton(0)</text></g><g id="edge39"><path d="M183.871,460.591c66.546,3.098 169.907,7.911 237.758,11.07" style="fill:none;stroke:#00f;stroke-width:1px;"/><path d="M421.961,468.173l9.826,3.961l-10.152,3.031l0.326,-6.992Z" style="fill:#00f;fill-rule:nonzero;stroke:#00f;stroke-width:1px;"/></g></g></svg>