<?xml version="1.0" encoding="UTF-8" standalone="no"?>
<!-- Created with Inkscape (http://www.inkscape.org/) -->

<svg
   xmlns:dc="http://purl.org/dc/elements/1.1/"
   xmlns:cc="http://creativecommons.org/ns#"
   xmlns:rdf="http://www.w3.org/1999/02/22-rdf-syntax-ns#"
   xmlns:svg="http://www.w3.org/2000/svg"
   xmlns="http://www.w3.org/2000/svg"
   xmlns:sodipodi="http://sodipodi.sourceforge.net/DTD/sodipodi-0.dtd"
   xmlns:inkscape="http://www.inkscape.org/namespaces/inkscape"
   width="25px"
   height="25px"
   viewBox="-300 -200 744.09448819 802.3622047"
   id="svg2"
   version="1.1"
   inkscape:version="0.91 r13725"
   sodipodi:docname="feather-bullet.svg">
  <g
     inkscape:label="Layer 1"
     inkscape:groupmode="layer"
     id="layer1">
    <path
       style="fill:#8ecf86;fill-rule:evenodd;stroke:#000000;stroke-width:1px;stroke-linecap:butt;stroke-linejoin:miter;stroke-opacity:1;fill-opacity:1"
       d="m 369.28571,555.21935 22.85715,-52.85715 18.57143,-67.14285 -4.28572,-62.14286 -24.28571,-37.85714 -1.42857,41.42857 -17.14286,54.28571 -12.14286,3.57143 L 365,375.93363 374.28571,293.79078 366.42857,255.93363 360,266.64792 l -15,96.42857 -8.57143,19.28571 21.42857,-142.85714 -10,-28.57143 -30,-45.71428 -15.71428,30.71428 -8.57143,-56.42857 -15.71429,30 L 258.57143,133.07649 245,161.64792 l -20.71429,-30.71429 -11.42857,22.14286 -22.85714,-25 -2.14286,30.71429 -25,-11.42858 11.42857,27.14286 -14.28571,3.57143 27.14286,39.28571 -51.42857,-45.71428 -5,37.14286 -2.14286,47.85714 46.42857,19.28571 -42.14286,18.57143 22.14286,65 41.42857,60.71429 41.42857,-5.71429 -27.85714,25 43.57143,51.42857 26.42857,-4.28571 -6.42857,15 35,31.42857 36.42857,27.85714 25,-2.85714 z"
       id="path4138"
       inkscape:connector-curvature="0" />
    <path
       style="fill:#36802d;fill-rule:evenodd;stroke:#000000;stroke-width:1px;stroke-linecap:butt;stroke-linejoin:miter;stroke-opacity:1;fill-opacity:1"
       d="m 425.27422,611.43062 -32.32488,-8.5863 -48.9924,-41.92133 -34.34518,-56.06347 -61.11423,-108.08632 -31.35467,-87.98242 -1.42857,-23.57143 7.85714,-3.57143 10.71428,17.14286 15,46.42857 18.57143,50.71428 72.85715,108.57143 37.14285,45 33.57143,30.71429 14.28572,20 z"
       id="path4136"
       inkscape:connector-curvature="0" />
  </g>
</svg>
