<?xml version="1.0" encoding="UTF-8" standalone="no"?>
<!DOCTYPE svg PUBLIC "-//W3C//DTD SVG 1.1//EN" "http://www.w3.org/Graphics/SVG/1.1/DTD/svg11.dtd">
<svg id="Top" viewBox="10 0 900 900" version="1.1" xmlns="http://www.w3.org/2000/svg" xmlns:xlink="http://www.w3.org/1999/xlink" xml:space="preserve" xmlns:serif="http://www.serif.com/" style="fill-rule:evenodd;clip-rule:evenodd;stroke-linecap:round;stroke-linejoin:round;stroke-miterlimit:1.5;">
    <rect x="10" y="0" width="900" height="900" style="fill:#fff;"/>
    <g id="Layer1" transform="translate(0 0 0 0)">
        <path id="Body" d="M461,227c18.667,5.5 62.2,-3.512 93,0c38,4.333 114.333,19 135,26c6.13,2.076 -4.579,15.191 -11,16c-19.833,2.5 -72.134,-4.126 -108,-1c-36.333,3.167 -87.333,11.833 -110,20c-12.214,4.401 -21.667,21.333 -26,29c-2.788,4.933 -3.919,12.907 0,17c7.5,7.833 30.544,19.229 45,30c17,12.667 41.991,26.743 57,46c17.667,22.667 36.5,64.667 49,90c9.916,20.097 19.333,43.5 26,62c5.759,15.981 17.5,46 14,49c-3.5,3 -32.333,-33.833 -35,-31c-2.667,2.833 15.667,35.833 19,48c2.204,8.044 7,20.5 1,25c-6,4.5 -25.374,6.171 -37,2c-21.833,-7.833 -81.333,-45.167 -94,-49c-10.089,-3.053 16.333,20.833 18,26c0.965,2.993 -5.509,6.919 -8,5c-10.167,-7.833 -38.167,-34.167 -53,-52c-14.012,-16.846 -27.167,-35.333 -36,-55c-8.833,-19.667 -14,-43.667 -17,-63c-2.709,-17.461 -1.333,-41.833 -1,-53c0.142,-4.77 4.5,-11.333 3,-14c-1.5,-2.667 -10.222,-5.645 -12,-2c-3.333,6.833 -8,28.421 -8,43c0,17 4.167,41.667 8,59c3.414,15.438 8.654,30.518 15,45c6.5,14.833 13.894,30.696 24,44c13.167,17.333 36.667,45.5 55,60c16.019,12.669 48,26.667 55,27c7,0.333 -11.667,-19.167 -13,-25c-0.83,-3.633 1.409,-10.997 5,-10c6,1.667 21,15.333 31,20c9.087,4.241 19.094,6.443 29,8c11.667,1.833 31.5,-2.333 41,3c9.5,5.333 9.583,20.016 16,29c6.667,9.333 15.09,18.9 24,27c20.167,18.333 80,65 97,83c5.835,6.178 8.333,21.333 5,25c-3.333,3.667 -21.667,-7.167 -25,-3c-3.333,4.167 8.833,23.667 5,28c-3.833,4.333 -22,-5.333 -28,-2c-6,3.333 -0.421,20.144 -8,22c-8.167,2 -30.063,-1.152 -41,-10c-14.833,-12 -36.333,-46.167 -48,-62c-7.842,-10.643 -10.295,-26.855 -22,-33c-20,-10.5 -82.667,-27.667 -98,-30c-5.631,-0.857 1.404,12.635 6,16c9.333,6.833 35.833,17.5 50,25c11.876,6.287 26.667,13.333 35,20c6.507,5.206 13.611,11.783 15,20c2,11.833 6.167,48.5 -3,51c-9.167,2.5 -34,-26.167 -52,-36c-17.709,-9.675 -37.624,-14.66 -56,-23c-21.667,-9.833 -52.167,-27 -74,-36c-18.421,-7.593 -39.167,-14.5 -57,-18c-16.384,-3.216 -48.667,-9.167 -50,-3c-1.333,6.167 29.5,27.333 42,40c11.434,11.587 24.833,25 33,36c6.756,9.1 15.5,23.833 16,30c0.398,4.906 -9.063,9.953 -13,7c-6.667,-5 -15.643,-26.795 -27,-37c-11.5,-10.333 -28.221,-16.306 -42,-25c-14,-8.833 -26.863,-20.652 -42,-28c-17.167,-8.333 -40.125,-16.392 -61,-22c-22.333,-6 -53.167,-11.333 -73,-14c-15.211,-2.045 -30.66,-2.49 -46,-2c-15.667,0.5 -35.5,0.833 -48,5c-10.625,3.542 -25.159,31.048 -27,20c-4.667,-28 -4.667,-160 -1,-188c1.319,-10.074 14.506,14.426 23,20c10.667,7 29.5,15.5 41,22c9.506,5.373 17.712,13.342 28,17c15,5.333 47.5,10.667 62,15c8.723,2.607 17.041,6.579 25,11c9,5 18.107,15.139 29,19c13.167,4.667 38.167,8 50,9c7.046,0.595 15.667,-2.667 21,-3c3.675,-0.23 7.937,-1.042 11,1c4,2.667 6.861,12.531 13,15c15.333,6.167 65.5,21.167 79,22c5.695,0.352 6.843,-13.983 2,-17c-10.167,-6.333 -47.167,-14.667 -63,-21c-11.215,-4.486 -21.757,-10.598 -32,-17c-16,-10 -46,-26 -64,-43c-17.836,-16.845 -33.667,-40 -44,-59c-9.216,-16.946 -13.333,-51.333 -18,-55c-4.667,-3.667 -6.833,41.167 -10,33c-3.167,-8.167 -9.167,-62.833 -9,-82c0.1,-11.494 12,-32.167 10,-33c-2,-0.833 -17.833,25.833 -22,28c-4.167,2.167 -4.283,-10.065 -3,-15c2.167,-8.333 8.848,-24.351 16,-35c7.5,-11.167 24.448,-18.343 29,-32c4.833,-14.5 3.167,-48.5 0,-55c-3.167,-6.5 -14.333,10.833 -19,16c-3.908,4.327 -7.167,15.833 -9,15c-1.833,-0.833 -3.471,-13.463 -2,-20c1.5,-6.667 10.667,-16.667 11,-20c0.299,-2.985 -10.167,2.333 -9,0c1.167,-2.333 19.225,-7.69 16,-14c-3.833,-7.5 -39.833,-27.167 -39,-31c0.833,-3.833 45.833,13.667 44,8c-1.833,-5.667 -54.5,-36.5 -55,-42c-0.5,-5.5 50.5,14.167 52,9c1.5,-5.167 -43.5,-36 -43,-40c0.5,-4 43.333,21 46,16c2.667,-5 -27.833,-39.833 -30,-46c-2.125,-6.049 11.44,5.806 17,9c7.833,4.5 21.833,14.333 30,18c5.904,2.651 17.5,8.167 19,4c1.5,-4.167 -6.667,-20.833 -10,-29c-2.817,-6.901 -8.667,-13.833 -10,-20c-1.206,-5.577 0.5,-16 2,-17c1.5,-1 4.319,7.579 7,11c4.833,6.167 19.833,30.167 22,26c2.167,-4.167 -8.667,-36.167 -9,-51c-0.289,-12.877 4.5,-34 7,-38c2.5,-4 6.032,8.998 8,14c4,10.167 11.667,38.5 16,47c1.631,3.198 9.465,7.55 10,4c1.833,-12.167 -0.5,-58.167 1,-77c0.976,-12.254 5.667,-37.167 8,-36c2.333,1.167 4,32.333 6,43c1.342,7.155 4.292,28.077 6,21c2.333,-9.667 4.833,-63.833 8,-79c1.109,-5.312 9.584,-17.238 11,-12c1.667,6.167 -2.333,38.667 -1,49c0.674,5.227 8.205,18.21 9,13c1.5,-9.833 -1,-58.667 0,-72c0.249,-3.324 4.167,-9.667 6,-8c1.833,1.667 3.76,11.897 5,18c2.167,10.667 2.833,33.333 8,46c4.759,11.667 16.833,22 23,30c4.641,6.02 8.665,12.585 14,18c11.167,11.333 40.5,36.333 53,50c8.736,9.552 15.167,21.167 22,32c6.772,10.736 6.825,29.413 19,33Z" style="fill:#374100;stroke:#000;stroke-width:0.75px;"/>
        <path id="Weary-Eye" serif:id="Weary Eye" d="M336,252c0,24.301 19.699,44 44,44c24.284,0 44,-19.716 44,-44c0,-11.67 -4.636,-22.861 -12.887,-31.113l-15.557,15.557c4.126,4.125 6.444,9.721 6.444,15.556c0,12.142 -9.858,22 -22,22c-12.15,0 -22,-9.85 -22,-22l-22,0Z" style="fill:#fff;display:true"/>
        <circle id="Full-Eye" serif:id="Full Eye" cx="380" cy="252" r="44" style="fill:#fff; display:true"/>
        <!--script>
          window.setInterval(
            function(){
              var ele = document.getElementById("Layer1")
              var a = 1 * Math.sin(Date.now()/1000)
              ele.setAttribute("transform", "rotate(" + a + " 0 0)")
            }, 100
          ) 
          window.setInterval(
            function(){ 
              var ele = document.getElementById("Full-Eye")
              var curr = ele.getAttribute("display")
              var next_val = curr == "true" ? "none" : "true";
              document.getElementById("Full-Eye").setAttribute("display",next_val); 
            },5000)
        </script-->
    </g>
    <rect x="10" y="0" width="900" height="900" style="fill:rgba(0,0,0,0);stroke:#718500;stroke-width:44px;"/>
</svg>
